<svg width="280" height="280" viewBox="0 0 280 280" fill="none" xmlns="http://www.w3.org/2000/svg">
<rect width="280" height="280" fill="#D3D7DC"/>
<path d="M140 140C154.587 140 168.576 134.205 178.891 123.891C189.205 113.576 195 99.5869 195 85C195 70.4131 189.205 56.4236 178.891 46.1091C168.576 35.7946 154.587 30 140 30C125.413 30 111.424 35.7946 101.109 46.1091C90.7946 56.4236 85 70.4131 85 85C85 99.5869 90.7946 113.576 101.109 123.891C111.424 134.205 125.413 140 140 140ZM120.363 160.625C78.0391 160.625 43.75 194.914 43.75 237.238C43.75 244.285 49.4648 250 56.5117 250H223.488C230.535 250 236.25 244.285 236.25 237.238C236.25 194.914 201.961 160.625 159.637 160.625H120.363Z" fill="white"/>
</svg>
